<svg width="80" height="72" viewBox="0 0 80 72" fill="none" xmlns="http://www.w3.org/2000/svg">
<g clip-path="url(#clip0_2046_30971)">
<path d="M39.6942 56.0847C61.8176 56.0847 66.2477 45.4544 66.2477 32.3412C66.2477 19.228 54.3593 8.59766 39.6942 8.59766C25.029 8.59766 13.1406 19.228 13.1406 32.3412C13.1406 45.4544 25.029 56.0847 39.6942 56.0847Z" fill="white"/>
<path d="M20.0782 35.4868C20.0782 38.038 23.8657 38.335 26.4043 38.335C28.9429 38.335 31.0335 36.9716 30.9928 35.4868C30.9521 33.4756 28.9293 32.6387 26.4043 32.6387C23.8793 32.6387 20.0646 32.9086 20.0782 35.4868Z" fill="#FBCDCF"/>
<path d="M27.0742 38.6189C27.0742 38.6189 26.9792 38.6189 26.9385 38.6054C26.5719 38.5244 26.3411 38.1734 26.4226 37.809C26.8434 35.8517 27.8209 34.4074 27.8616 34.3534C28.0652 34.0429 28.4861 33.9619 28.7983 34.1779C29.1105 34.3804 29.192 34.8123 28.9748 35.1093C28.9748 35.1093 28.106 36.3916 27.7394 38.0924C27.6715 38.4029 27.3865 38.6324 27.0742 38.6324V38.6189Z" fill="#94776C"/>
<path d="M23.7617 38.7263C23.7617 38.7263 23.6667 38.7263 23.626 38.7128C23.2594 38.6318 23.0286 38.2808 23.1101 37.9164C23.5309 35.9591 24.5084 34.5148 24.5491 34.4608C24.7527 34.1503 25.1736 34.0694 25.4858 34.2853C25.798 34.4878 25.8795 34.9198 25.6623 35.2167C25.6623 35.2167 24.7935 36.4991 24.4269 38.1998C24.359 38.5103 24.074 38.7398 23.7617 38.7398V38.7263Z" fill="#94776C"/>
<path d="M20.1211 38.6189C20.1211 38.6189 20.0261 38.6189 19.9853 38.6054C19.6188 38.5244 19.388 38.1734 19.4695 37.809C19.8903 35.8517 20.8677 34.4074 20.9085 34.3534C21.1257 34.0429 21.5465 33.9619 21.8452 34.1779C22.1574 34.3939 22.2389 34.8123 22.0217 35.1093C22.0217 35.1093 21.1528 36.3916 20.7863 38.0924C20.7184 38.4029 20.4333 38.6324 20.1211 38.6324V38.6189Z" fill="#94776C"/>
<path d="M57.5376 67.5056C57.5376 67.5056 58.6101 70.8667 66.4295 68.2615C66.4295 68.2615 76.5975 72.311 78.1859 63.6856C78.1859 63.6856 81.7562 59.5011 76.2717 56.0185C76.2717 56.0185 77.0455 50.1333 70.1356 49.2964C63.2257 48.4595 62.099 56.599 66.6739 59.5416C66.6739 59.5416 63.4158 61.8633 62.3705 64.3875L57.1439 63.5506L57.0625 63.3616L57.5512 67.5191L57.5376 67.5056Z" fill="white"/>
<path d="M61.3271 69.9218C60.2004 69.9218 59.2501 69.7193 58.4763 69.3279C57.2409 68.707 56.9287 67.8026 56.888 67.6946C56.888 67.6541 56.8608 67.6136 56.8608 67.5731L56.3721 63.4156C56.3314 63.0782 56.5486 62.7677 56.8744 62.6867C57.1459 62.6192 57.4174 62.7137 57.5803 62.9162L61.9652 63.6181C62.8611 61.8768 64.5716 60.3245 65.5491 59.5281C63.5128 57.7463 62.6847 54.7632 63.6214 52.212C64.5852 49.5664 67.056 48.23 70.219 48.608C72.6219 48.9049 74.4274 49.7958 75.5949 51.2941C76.8846 52.9409 76.9932 54.8172 76.966 55.6541C78.7037 56.8419 79.7083 58.2458 79.939 59.8116C80.2513 61.8228 79.1788 63.4561 78.8123 63.9421C78.3507 66.2908 77.2239 67.9781 75.4591 68.9364C72.0789 70.7992 67.5039 69.3414 66.4043 68.9364C64.4495 69.5709 62.739 69.8948 61.3135 69.8948L61.3271 69.9218ZM58.2048 67.3301C58.3813 67.6676 59.7659 69.7733 66.2143 67.6271C66.3636 67.5731 66.5265 67.5866 66.6758 67.6271C66.7301 67.6406 71.6037 69.5439 74.8075 67.7756C76.2329 66.9927 77.1289 65.5754 77.509 63.5506C77.5362 63.4426 77.5769 63.3211 77.6584 63.2401C77.6584 63.2266 78.8666 61.7688 78.5951 60.014C78.405 58.7452 77.4955 57.5978 75.8936 56.5855C75.6763 56.4505 75.5542 56.194 75.5813 55.9376C75.5813 55.9106 75.8257 53.8183 74.4953 52.131C73.5586 50.9432 72.0653 50.2143 70.029 49.9713C67.5039 49.6608 65.617 50.6597 64.8839 52.698C64.178 54.6282 64.6938 57.4899 67.0152 58.9882C67.2053 59.1097 67.3139 59.3121 67.3275 59.5416C67.341 59.7711 67.2324 59.9736 67.0424 60.1085C67.0152 60.1355 63.92 62.3493 62.9697 64.6575C62.8476 64.9409 62.5353 65.1164 62.2367 65.0624L57.8247 64.3605L58.1776 67.3436L58.2048 67.3301Z" fill="#94776C"/>
<path d="M39.6932 56.7607C14.4701 56.7607 12.4609 46.178 12.4609 32.3423C12.4609 18.5065 24.6788 7.92383 39.6932 7.92383C54.7077 7.92383 66.9256 18.655 66.9256 32.3423C66.9256 44.1533 64.8214 56.7607 39.6932 56.7607ZM39.6932 9.27366C25.4255 9.27366 13.8185 19.6269 13.8185 32.3423C13.8185 43.6809 13.8185 55.4109 39.6932 55.4109C63.5724 55.4109 65.568 44.0183 65.568 32.3423C65.568 19.4109 54.2054 9.27366 39.6932 9.27366Z" fill="#94776C"/>
<path d="M22.8135 28.5094C22.9085 28.3204 23.0171 28.118 23.1122 27.902L20.465 18.3047C20.465 18.3047 16.5281 18.8176 13.6094 20.4644C14.6004 21.8817 17.8585 26.1337 22.7999 28.5094H22.8135Z" fill="white"/>
<path d="M10.5447 24.4873C10.341 29.2387 15.7441 28.0104 15.7441 28.0104C15.7441 28.0104 19.8574 34.0981 22.8304 28.5098C17.8754 26.1341 14.6173 21.8822 13.6399 20.4648C11.9701 21.3962 10.6261 22.7056 10.5583 24.4873H10.5447Z" fill="white"/>
<path d="M19.8442 31.5461C17.8215 31.5461 16.0838 29.5754 15.4458 28.752C14.5498 28.887 12.527 29.0085 11.1559 27.8746C10.2328 27.1187 9.79838 25.9713 9.86626 24.4595C10.097 19.0467 19.9664 17.6969 20.3872 17.6429C20.7538 17.6024 21.0931 17.8588 21.1474 18.2233C21.2017 18.5878 20.9302 18.9252 20.5637 18.9792C18.0115 19.3167 11.3731 20.9635 11.2238 24.5135C11.1831 25.5664 11.4546 26.3493 12.0248 26.8217C13.2601 27.8476 15.5679 27.3482 15.5951 27.3347C15.8666 27.2672 16.1517 27.3887 16.3146 27.6181C16.8305 28.374 18.4867 30.3043 20.0071 30.1693C20.9438 30.0883 21.7855 29.2244 22.5186 27.6046C22.6679 27.2672 23.0751 27.1187 23.4145 27.2672C23.7539 27.4157 23.9032 27.8206 23.7539 28.1581C22.8036 30.2638 21.5819 31.3842 20.1157 31.5191C20.0343 31.5191 19.9392 31.5191 19.8578 31.5191L19.8442 31.5461Z" fill="#94776C"/>
<path d="M57.0487 28.5094C56.9536 28.3204 56.845 28.118 56.75 27.902L59.3972 18.3047C59.3972 18.3047 63.3341 18.8176 66.2528 20.4644C65.2618 21.8817 62.0037 26.1337 57.0622 28.5094H57.0487Z" fill="white"/>
<path d="M69.317 24.4873C69.5206 29.2387 64.1176 28.0104 64.1176 28.0104C64.1176 28.0104 60.0043 34.0981 57.0312 28.5098C61.9863 26.1341 65.2444 21.8822 66.2218 20.4648C67.8916 21.3962 69.2356 22.7056 69.3034 24.4873H69.317Z" fill="white"/>
<path d="M60.0243 31.5465C59.9428 31.5465 59.8478 31.5465 59.7664 31.5465C58.3002 31.425 57.0784 30.2911 56.1281 28.1854C55.9788 27.8479 56.1281 27.443 56.4675 27.2945C56.8069 27.146 57.2142 27.2945 57.3635 27.632C58.0966 29.2518 58.9383 30.1157 59.875 30.1967C61.3818 30.3181 63.0516 28.4014 63.5675 27.6455C63.7304 27.416 64.0019 27.308 64.287 27.362C64.3141 27.362 66.6219 27.8749 67.8573 26.8491C68.4275 26.3766 68.699 25.5937 68.6583 24.5409C68.5089 20.9773 61.8705 19.3305 59.3184 19.0066C58.9518 18.9526 58.6803 18.6151 58.7346 18.2506C58.7889 17.8862 59.1283 17.6297 59.4948 17.6702C59.9157 17.7242 69.785 19.0875 70.0158 24.4869C70.0837 25.9852 69.6493 27.1325 68.7261 27.9019C67.3686 29.0358 65.3323 28.9008 64.4363 28.7793C63.7847 29.6162 62.047 31.5735 60.0379 31.5735L60.0243 31.5465Z" fill="#94776C"/>
<path d="M34.3141 10.9869C34.3141 10.9869 32.7258 6.7484 39.1606 5.61454C39.1606 5.61454 37.3822 9.00262 38.4411 10.258C38.4411 10.258 38.9705 5.81702 45.7311 4.95312C45.7311 4.95312 42.7988 9.20509 44.0613 12.2827" fill="white"/>
<path d="M44.0619 12.9314C43.7904 12.9314 43.546 12.7694 43.4374 12.5129C42.5007 10.2182 43.5868 7.45104 44.4149 5.85824C39.582 7.0056 39.134 10.2857 39.1204 10.3262C39.0933 10.5962 38.9032 10.8121 38.6453 10.8931C38.3874 10.9741 38.1023 10.8931 37.9258 10.6771C37.057 9.65127 37.505 7.829 37.9937 6.57365C36.6226 6.9786 35.6859 7.61302 35.1971 8.43642C34.5455 9.55678 34.9392 10.7041 34.9528 10.7446C35.075 11.0956 34.8985 11.487 34.5455 11.6085C34.1926 11.73 33.8124 11.5545 33.6767 11.2171C33.6495 11.1496 33.0386 9.46229 34.0025 7.775C34.8306 6.33068 36.5275 5.3723 39.039 4.94036C39.2969 4.89986 39.5549 4.99435 39.7042 5.21032C39.8535 5.4128 39.8807 5.69626 39.7585 5.92573C39.5549 6.31718 39.3376 6.80312 39.1612 7.30256C40.2608 6.02022 42.2021 4.71089 45.6366 4.26544C45.9081 4.23845 46.1661 4.35993 46.3018 4.5759C46.4376 4.80537 46.4376 5.08884 46.2883 5.30481C46.2611 5.34531 43.5732 9.30031 44.6864 12C44.8221 12.3509 44.6592 12.7424 44.3198 12.8774C44.2384 12.9044 44.1433 12.9314 44.0619 12.9314Z" fill="#94776C"/>
<path d="M25.5448 57.3133V70.4337L58.6553 71.3111C58.6553 71.3111 56.8769 54.4517 53.6731 47.3516L25.5312 57.3133H25.5448Z" fill="white"/>
<path d="M13.6254 40.0907C13.6254 40.0907 7.51643 34.8263 2.90078 38.9298C-3.45252 44.5721 4.59771 56.7746 16.6798 59.2448C16.6798 59.2448 27.8796 52.6711 27.8796 42.1559C27.8796 33.733 16.7206 33.5845 13.6254 40.1042V40.0907Z" fill="#F9B6B8"/>
<path d="M16.6811 59.919C16.6811 59.919 16.5861 59.919 16.5453 59.9055C7.82992 58.1237 1.80243 51.8065 0.36343 46.4882C-0.505397 43.2756 0.227676 40.414 2.45405 38.4297C6.5131 34.8122 11.6039 37.7953 13.4094 39.0776C15.5408 35.5141 19.8849 34.2992 23.0751 35.0146C26.5097 35.784 28.5596 38.4432 28.5596 42.1552C28.5596 52.9404 17.4956 59.5546 17.0341 59.838C16.9255 59.9055 16.8033 59.9325 16.6947 59.9325L16.6811 59.919ZM7.00181 38.0248C5.78003 38.0248 4.50394 38.4027 3.35002 39.4286C1.01505 41.5073 1.13723 44.2205 1.6531 46.1237C2.94276 50.8752 8.59014 56.7874 16.5318 58.5152C18.0658 57.5298 27.1749 51.3476 27.1749 42.1417C27.1749 39.0641 25.5594 36.9449 22.7493 36.324C19.8442 35.6761 15.8666 36.8774 14.2104 40.3735C14.1153 40.5624 13.9389 40.6974 13.7352 40.7514C13.5316 40.7919 13.3144 40.7514 13.1515 40.6029C12.9886 40.4545 10.1106 38.0248 6.97466 38.0248H7.00181Z" fill="#94776C"/>
<path d="M68.3653 3.56302C68.3653 3.56302 64.4827 -0.87793 61.2925 1.2818C56.9076 4.25143 60.2472 14.6046 67.5101 17.1018C67.5101 17.1018 76.144 12.4989 77.0129 5.99271C77.7052 0.782363 70.8089 -0.216512 68.3653 3.56302Z" fill="#F9B6B8"/>
<path d="M67.4973 17.7772C67.4159 17.7772 67.348 17.7772 67.2801 17.7367C62.393 16.0494 59.2842 11.0551 58.7412 6.99208C58.3611 4.19793 59.162 1.91671 60.9132 0.728858C63.8048 -1.2284 67.0222 1.30929 68.3119 2.53763C70.0224 0.607373 72.7782 0.256417 74.7195 0.958329C76.9051 1.75473 78.0047 3.67149 77.6925 6.08769C76.7965 12.8638 68.2032 17.5073 67.8367 17.7097C67.7417 17.7637 67.6331 17.7907 67.5109 17.7907L67.4973 17.7772ZM63.2075 1.36328C62.678 1.36328 62.1622 1.49826 61.6599 1.83572C60.3431 2.72661 59.7593 4.53538 60.0716 6.8166C60.5467 10.3937 63.2211 14.7671 67.4294 16.3599C68.8413 15.5365 75.6019 11.3655 76.3214 5.89871C76.5521 4.13043 75.7919 2.7806 74.2307 2.21367C72.5745 1.60625 70.1581 2.0112 68.9227 3.92796C68.8141 4.10344 68.6105 4.22492 68.4069 4.23842C68.2032 4.25192 67.986 4.17093 67.8503 4.00895C67.8231 3.98195 65.5017 1.37678 63.2075 1.37678V1.36328Z" fill="#94776C"/>
<path d="M37.3161 64.4404C37.3161 64.4404 19.5051 61.7407 17.0208 55.0726C17.0208 55.0726 15.9483 52.8859 17.5638 51.1311C17.5638 51.1311 18.5141 42.5056 25.9263 46.4876C41.7688 54.9781 48.8416 54.5191 51.0273 54.9781" fill="white"/>
<path d="M37.3151 65.1157C37.3151 65.1157 37.2472 65.1157 37.2065 65.1157C36.4598 65.0077 18.9747 62.281 16.3818 55.3159C16.3546 55.2754 15.2143 52.8862 16.9248 50.8479C17.0605 49.957 17.7393 46.596 20.2372 45.2866C21.8798 44.4362 23.9025 44.6387 26.2511 45.8941C39.5686 53.0347 46.7093 53.8041 49.7502 54.128C50.3475 54.1955 50.8226 54.2495 51.162 54.317C51.5285 54.398 51.7593 54.7489 51.6914 55.1134C51.61 55.4779 51.257 55.7073 50.8905 55.6398C50.5783 55.5723 50.1574 55.5318 49.6008 55.4779C46.4785 55.1404 39.1613 54.344 25.5995 47.0819C23.6718 46.056 22.0699 45.8401 20.8617 46.4745C18.6624 47.6218 18.228 51.1719 18.228 51.2124C18.2144 51.3474 18.1466 51.4824 18.0515 51.5903C16.7754 52.9807 17.5764 54.7085 17.6171 54.7894C19.9657 61.0797 37.22 63.7658 37.3965 63.7928C37.7631 63.8468 38.021 64.1978 37.9667 64.5622C37.9124 64.8997 37.6273 65.1291 37.3015 65.1291L37.3151 65.1157Z" fill="#94776C"/>
<path d="M25.3594 61.2969C25.3594 61.2969 25.7938 68.6805 25.3594 71.3261V61.2969Z" fill="white"/>
<path d="M25.3557 72.0002C25.3557 72.0002 25.2879 72.0002 25.2471 72.0002C24.8806 71.9462 24.6227 71.5952 24.6906 71.2308C25.1114 68.6796 24.6906 61.4175 24.6906 61.35C24.6634 60.9721 24.9485 60.6616 25.3286 60.6346C25.6816 60.6076 26.0209 60.8911 26.0481 61.269C26.0617 61.5795 26.4825 68.7606 26.0481 71.4467C25.9938 71.7842 25.7087 72.0137 25.3829 72.0137L25.3557 72.0002Z" fill="#94776C"/>
<path d="M58.6541 69.7997C58.6541 69.7997 58.9256 65.0213 55.3281 53.6152L58.6541 69.7997Z" fill="white"/>
<path d="M58.6564 70.4749C58.6564 70.4749 58.6293 70.4749 58.6157 70.4749C58.2356 70.4479 57.9505 70.1374 57.9777 69.7595C57.9777 69.7055 58.1813 64.9136 54.6788 53.8044C54.5702 53.4535 54.7603 53.0755 55.1268 52.9541C55.4798 52.8461 55.8599 53.035 55.9821 53.3995C59.5796 64.7921 59.3488 69.6245 59.3352 69.8269C59.3216 70.1914 59.0094 70.4614 58.6564 70.4614V70.4749Z" fill="#94776C"/>
<path d="M39.6979 42.3447C43.7466 42.3447 47.0286 39.9818 47.0286 37.0669C47.0286 34.152 43.7466 31.7891 39.6979 31.7891C35.6493 31.7891 32.3672 34.152 32.3672 37.0669C32.3672 39.9818 35.6493 42.3447 39.6979 42.3447Z" fill="#AADFEF"/>
<path d="M40.4845 36.0668H38.8419C38.0953 36.0668 37.4844 35.4594 37.4844 34.717C37.4844 33.9746 38.0953 33.3672 38.8419 33.3672H40.4845C41.2312 33.3672 41.8421 33.9746 41.8421 34.717C41.8421 35.4594 41.2312 36.0668 40.4845 36.0668Z" fill="#94776C"/>
<path d="M41.7152 39.2399C40.7106 39.2399 39.9911 38.565 39.5159 37.8226C38.905 38.565 38.2263 38.9564 37.4796 38.9699C35.8913 38.9969 34.8053 37.3366 34.6831 37.1341C34.493 36.8102 34.5881 36.4052 34.9139 36.2028C35.2261 36.0138 35.6469 36.1083 35.8506 36.4187C36.0406 36.7292 36.7465 37.6066 37.4253 37.6066C37.4253 37.6066 37.4389 37.6066 37.4525 37.6066C38.0905 37.5796 38.6607 36.7832 39.0272 36.1083C39.163 35.8653 39.4073 35.7303 39.6924 35.7573C39.9639 35.7843 40.1947 35.9733 40.2762 36.2298C40.2762 36.2433 40.8192 37.971 41.8373 37.863C42.9912 37.7281 43.4121 36.7427 43.4257 36.6887C43.5614 36.3512 43.9551 36.1758 44.3081 36.3107C44.6474 36.4457 44.8239 36.8372 44.6882 37.1746C44.661 37.2421 43.9687 38.9564 41.9867 39.1859C41.8916 39.1859 41.8102 39.1994 41.7152 39.1994V39.2399Z" fill="#94776C"/>
<path d="M32.3627 30.9374C32.1455 30.9374 31.9419 30.8429 31.8062 30.6539C31.5889 30.3435 31.6568 29.925 31.9691 29.7091C32.0369 29.6686 33.5981 28.5752 35.105 28.2107C35.4579 28.1163 35.8381 28.3457 35.9195 28.7102C36.001 29.0746 35.7838 29.4391 35.4172 29.5201C34.1683 29.8171 32.77 30.7889 32.7564 30.8024C32.6343 30.8834 32.4985 30.9239 32.3627 30.9239V30.9374Z" fill="#94776C"/>
<path d="M47.1876 30.9376C47.0518 30.9376 46.916 30.8971 46.7939 30.8161C46.7803 30.8161 45.382 29.8307 44.1331 29.5338C43.7665 29.4528 43.5358 29.0883 43.6308 28.7239C43.7122 28.3594 44.0788 28.1299 44.4453 28.2244C45.9522 28.5754 47.5134 29.6687 47.5812 29.7227C47.8799 29.9387 47.9614 30.3572 47.7441 30.6676C47.6084 30.8566 47.4048 30.9511 47.1876 30.9511V30.9376Z" fill="#94776C"/>
<path d="M59.3684 35.4868C59.3684 38.038 55.5808 38.335 53.0422 38.335C50.5036 38.335 48.413 36.9716 48.4537 35.4868C48.4944 33.4756 50.5172 32.6387 53.0422 32.6387C55.5672 32.6387 59.3819 32.9086 59.3684 35.4868Z" fill="#FBCDCF"/>
<path d="M52.3801 38.6186C52.0679 38.6186 51.7828 38.4027 51.7149 38.0787C51.3484 36.3914 50.4932 35.1091 50.4796 35.0956C50.276 34.7851 50.3574 34.3667 50.6561 34.1642C50.9683 33.9617 51.3891 34.0292 51.5928 34.3397C51.6335 34.3937 52.6109 35.838 53.0318 37.7952C53.1132 38.1597 52.8824 38.5241 52.5159 38.5916C52.4616 38.5916 52.4209 38.6051 52.3666 38.6051L52.3801 38.6186Z" fill="#94776C"/>
<path d="M55.6926 38.7261C55.3804 38.7261 55.0953 38.5101 55.0274 38.1861C54.6609 36.4988 53.8057 35.2165 53.7921 35.203C53.5885 34.8925 53.6699 34.4741 53.9686 34.2716C54.2808 34.0691 54.7016 34.1366 54.9053 34.4471C54.946 34.5011 55.9234 35.9454 56.3443 37.9027C56.4257 38.2671 56.1949 38.6316 55.8284 38.6991C55.7741 38.6991 55.7334 38.7126 55.6791 38.7126L55.6926 38.7261Z" fill="#94776C"/>
<path d="M59.3272 38.6187C59.015 38.6187 58.7299 38.4027 58.662 38.0787C58.2955 36.3915 57.4402 35.1091 57.4266 35.0956C57.2094 34.7852 57.2909 34.3667 57.6031 34.1642C57.9154 33.9483 58.3362 34.0293 58.5398 34.3397C58.5806 34.3937 59.558 35.838 59.9788 37.7953C60.0603 38.1597 59.8295 38.5242 59.463 38.5917C59.4087 38.5917 59.3679 38.6052 59.3272 38.6052V38.6187Z" fill="#94776C"/>
</g>
<defs>
<clipPath id="clip0_2046_30971">
<rect width="80" height="72" fill="white"/>
</clipPath>
</defs>
</svg>
