<svg width="82" height="71" viewBox="0 0 82 71" fill="none" xmlns="http://www.w3.org/2000/svg">
<g clip-path="url(#clip0_2046_39268)">
<path d="M56.2728 64.576C56.2728 64.576 57.2941 67.8009 64.7404 65.3013C64.7404 65.3013 74.4232 69.1868 75.9357 60.9108C75.9357 60.9108 79.3357 56.8958 74.1129 53.5543C74.1129 53.5543 74.8498 47.9075 68.2696 47.1045C61.6895 46.3015 60.6165 54.1112 64.9731 56.9347C64.9731 56.9347 61.8704 59.1623 60.875 61.5842L55.8979 60.7812L55.8203 60.5999L56.2857 64.589L56.2728 64.576Z" fill="white"/>
<path d="M59.8951 66.8947C58.8221 66.8947 57.9172 66.7004 57.1803 66.3248C56.0039 65.729 55.7066 64.8613 55.6678 64.7577C55.6678 64.7188 55.6419 64.68 55.6419 64.6411L55.1765 60.6521C55.1378 60.3283 55.3446 60.0304 55.6549 59.9527C55.9134 59.8879 56.172 59.9786 56.3271 60.1728L60.5027 60.8463C61.3559 59.1756 62.9978 57.6862 63.9156 56.922C61.9765 55.2124 61.1879 52.3502 62.0799 49.9023C62.9978 47.3638 65.3377 46.0816 68.3627 46.4443C70.6509 46.7292 72.3703 47.584 73.4821 49.0216C74.6973 50.6017 74.8136 52.402 74.7878 53.205C76.4425 54.3447 77.3991 55.6916 77.6189 57.194C77.9163 59.1238 76.895 60.6909 76.5459 61.1701C76.1064 63.4237 75.0334 65.0426 73.3528 65.9622C70.1338 67.7365 65.7772 66.3507 64.7301 65.9622C62.8685 66.5709 61.2396 66.8817 59.8822 66.8817L59.8951 66.8947ZM56.9218 64.395C57.0898 64.7188 58.4084 66.7392 64.5491 64.68C64.6913 64.6282 64.8464 64.6282 64.9886 64.68C65.0403 64.6929 69.6813 66.5191 72.7323 64.8224C74.0897 64.0712 74.9429 62.7113 75.3049 60.7686C75.3307 60.665 75.3695 60.5484 75.4471 60.4707C75.4471 60.4578 76.5976 59.059 76.3391 57.3753C76.1452 56.1579 75.2919 55.057 73.7665 54.0857C73.5596 53.9561 73.4433 53.7101 73.4691 53.451C73.4691 53.4381 73.7018 51.4177 72.4349 49.7987C71.5429 48.659 70.1209 47.9596 68.1817 47.7265C65.7772 47.4415 63.9803 48.387 63.2822 50.3427C62.6099 52.1947 63.1012 54.9405 65.3118 56.3781C65.4928 56.4946 65.5962 56.6889 65.6091 56.9091C65.6221 57.1293 65.5187 57.3235 65.3377 57.453C65.3118 57.4789 62.3643 59.603 61.4594 61.8177C61.343 62.1026 61.0457 62.258 60.7613 62.2062L56.5598 61.5328L56.8959 64.395H56.9218Z" fill="#977764"/>
<path d="M24.4366 58.6698C24.4366 58.6698 23.3249 68.0726 23.2344 68.4093L60.7245 68.7461L58.139 39.8643L26.8024 41.2242L24.4366 58.6698Z" fill="white"/>
<path d="M23.2336 70.3519C22.7036 66.7903 24.4359 59.1748 24.4359 59.1748L23.2336 70.3519Z" fill="white"/>
<path d="M23.2334 70.9996C22.9232 70.9996 22.6388 70.7665 22.6 70.4427C22.057 66.8033 23.7376 59.3433 23.8152 59.0195C23.8928 58.6698 24.2418 58.4496 24.5909 58.5273C24.9399 58.605 25.1597 58.9547 25.0821 59.3044C25.0692 59.3821 23.3886 66.8551 23.8928 70.2484C23.9445 70.5981 23.6988 70.9348 23.3498 70.9866C23.3239 70.9866 23.2852 70.9866 23.2593 70.9866L23.2334 70.9996Z" fill="#977764"/>
<path d="M59.4141 59.1758C59.4141 59.1758 61.1464 66.8042 60.6163 70.3529L59.4141 59.1758Z" fill="white"/>
<path d="M60.6196 71.0005C60.6196 71.0005 60.555 71.0005 60.5291 71.0005C60.1801 70.9486 59.9345 70.6249 59.9862 70.2622C60.4903 66.8689 58.8097 59.3959 58.7968 59.3182C58.7193 58.9685 58.939 58.6188 59.2881 58.5411C59.6371 58.4505 59.9862 58.6836 60.0637 59.0333C60.1413 59.3441 61.8219 66.8171 61.2789 70.4565C61.2272 70.7803 60.9557 71.0134 60.6455 71.0134L60.6196 71.0005Z" fill="#977764"/>
<path d="M43.5443 49.7205C57.5096 49.7205 68.8307 39.5208 68.8307 26.9389C68.8307 14.3569 57.5096 4.15723 43.5443 4.15723C29.5789 4.15723 18.2578 14.3569 18.2578 26.9389C18.2578 39.5208 29.5789 49.7205 43.5443 49.7205Z" fill="white"/>
<path d="M43.5422 50.368C19.5227 50.368 17.6094 40.214 17.6094 26.9387C17.6094 13.6635 29.2442 3.52246 43.5422 3.52246C57.8402 3.52246 69.4751 13.8189 69.4751 26.9517C69.4751 38.2842 67.4713 50.3809 43.5422 50.3809V50.368ZM43.5422 4.80466C29.9553 4.80466 18.9021 14.7384 18.9021 26.9387C18.9021 37.818 18.9021 49.0728 43.5422 49.0728C66.2819 49.0728 68.1823 38.1418 68.1823 26.9387C68.1823 14.5312 57.3619 4.80466 43.5422 4.80466Z" fill="#977764"/>
<path d="M27.4681 23.2737C27.5586 23.0924 27.662 22.8981 27.7525 22.6909L25.2316 13.4824C25.2316 13.4824 21.4826 13.9746 18.7031 15.5547C19.6468 16.9146 22.7495 20.9943 27.4551 23.2737H27.4681Z" fill="white"/>
<path d="M15.771 19.4142C15.5771 23.9731 20.7223 22.7946 20.7223 22.7946C20.7223 22.7946 24.6393 28.6357 27.4705 23.2738C22.7519 20.9943 19.6493 16.9146 18.7185 15.5547C17.1284 16.4483 15.8485 17.7046 15.7839 19.4142H15.771Z" fill="white"/>
<path d="M24.6256 26.1877C22.6993 26.1877 21.0446 24.2968 20.437 23.5068C19.5838 23.6233 17.6576 23.7528 16.3519 22.6649C15.4728 21.9396 15.0591 20.8387 15.1237 19.3882C15.3435 14.1946 24.7419 12.8995 25.1427 12.8347C25.4917 12.7829 25.8149 13.042 25.8666 13.3916C25.9183 13.7413 25.6598 14.0651 25.3107 14.1169C22.8803 14.4407 16.5587 16.0208 16.4165 19.427C16.3777 20.4502 16.6233 21.1884 17.1792 21.6417C18.3557 22.6261 20.5533 22.1468 20.5792 22.1339C20.8378 22.0691 21.1092 22.1857 21.2644 22.4059C21.7556 23.1312 23.3199 25.0221 24.7807 24.8537C25.6727 24.776 26.4742 23.9471 27.1723 22.3929C27.3145 22.0691 27.7023 21.9137 28.0255 22.0691C28.3487 22.2116 28.4909 22.6002 28.3487 22.9239C27.4438 24.9444 26.2803 26.0323 24.8841 26.1489C24.8065 26.1489 24.716 26.1489 24.6385 26.1489L24.6256 26.1877Z" fill="#977764"/>
<path d="M60.0578 23.2737C59.9673 23.0924 59.8639 22.8981 59.7734 22.6909L62.2943 13.4824C62.2943 13.4824 66.0433 13.9746 68.8228 15.5547C67.8791 16.9146 64.7764 20.9943 60.0708 23.2737H60.0578Z" fill="white"/>
<path d="M71.7542 19.4142C71.9481 23.9731 66.8029 22.7946 66.8029 22.7946C66.8029 22.7946 62.8858 28.6357 60.0547 23.2738C64.7733 20.9943 67.8759 16.9146 68.8067 15.5547C70.3968 16.4483 71.6766 17.7046 71.7413 19.4142H71.7542Z" fill="white"/>
<path d="M62.8903 26.1879C62.8127 26.1879 62.7222 26.1879 62.6447 26.1879C61.2485 26.0714 60.085 24.9834 59.1801 22.963C59.0379 22.6392 59.1801 22.2507 59.5033 22.1082C59.8264 21.9528 60.2143 22.1082 60.3565 22.432C61.0546 23.9862 61.8561 24.8151 62.7481 24.8928C64.2089 25.0223 65.7732 23.1702 66.2515 22.4449C66.3937 22.2248 66.6781 22.1082 66.9366 22.173C66.9625 22.173 69.1602 22.6651 70.3366 21.6808C70.8796 21.2275 71.1381 20.4763 71.0993 19.4661C70.9571 16.0469 64.6226 14.4668 62.2051 14.156C61.8561 14.1042 61.5975 13.7804 61.6492 13.4307C61.701 13.081 62.0112 12.822 62.3732 12.8738C62.7739 12.9256 72.1723 14.2337 72.3921 19.4272C72.4567 20.8649 72.0431 21.9657 71.164 22.704C69.8712 23.7919 67.9321 23.6624 67.0789 23.5458C66.4583 24.3488 64.8036 26.2268 62.8903 26.2268V26.1879Z" fill="#977764"/>
<path d="M38.4074 6.44947C38.4074 6.44947 36.8949 2.3827 43.0226 1.29478C43.0226 1.29478 41.3291 4.5456 42.3374 5.75009C42.3374 5.75009 42.8416 1.48905 49.2796 0.660156C49.2796 0.660156 46.4872 4.73987 47.6895 7.69281" fill="white"/>
<path d="M47.6888 8.32756C47.4303 8.32756 47.1976 8.17214 47.0942 7.92606C46.2022 5.72431 47.2364 3.06926 48.025 1.54098C43.4744 2.62891 43.009 5.68546 42.9832 5.82792C42.9444 6.08695 42.7634 6.29417 42.5178 6.37188C42.2722 6.44959 42.0007 6.37188 41.8456 6.16466C41.0182 5.18035 41.4448 3.4319 41.9102 2.22741C40.6045 2.61596 39.7125 3.22467 39.2471 4.01471C38.6266 5.08969 39.0015 6.19056 39.0144 6.22942C39.1308 6.56616 38.9627 6.94175 38.6266 7.05831C38.2905 7.18783 37.9285 7.00651 37.7992 6.68272C37.7734 6.61796 37.1916 4.99903 38.1095 3.39304C38.8981 2.00724 40.514 1.08768 42.9056 0.660282C43.1512 0.621428 43.3969 0.712088 43.5391 0.919312C43.6813 1.11358 43.7071 1.38557 43.5908 1.60574C43.3969 1.98133 43.19 2.44759 43.022 2.92679C44.0691 1.6964 45.9178 0.440107 49.1885 0.0127086C49.447 -0.0261458 49.6926 0.103369 49.8219 0.323544C49.9512 0.543719 49.9512 0.8157 49.809 1.02292C49.7831 1.06178 47.2235 4.85656 48.2835 7.44686C48.4128 7.78359 48.2577 8.15919 47.9215 8.2887C47.844 8.32756 47.7664 8.34051 47.6759 8.34051L47.6888 8.32756Z" fill="#977764"/>
<path d="M53.6484 26.2391C53.7312 23.4436 49.1064 21.0378 43.3187 20.8657C37.5309 20.6936 32.7718 22.8204 32.689 25.6159C32.6062 28.4115 37.231 30.8172 43.0188 30.9893C48.8065 31.1614 53.5656 29.0347 53.6484 26.2391Z" fill="#B8E2F2"/>
<path d="M18.145 27.9232C18.145 27.9232 56.8762 28.2081 62.9652 28.1952C62.9652 28.1952 75.3886 20.243 79.9521 25.6437C84.5155 31.0445 76.5133 38.0771 76.5133 38.0771C76.5133 38.0771 83.546 45.7574 78.7886 51.8705C74.0312 57.9836 65.6412 51.8964 60.8321 45.5113L20.1359 45.6149C20.1359 45.6149 14.1504 52.8418 5.70865 52.259C-2.73309 51.6762 1.57181 38.5952 3.1102 37.9606C3.1102 37.9606 -3.108 26.3042 5.08813 23.8305C13.2842 21.3568 18.145 27.9232 18.145 27.9232Z" fill="#F0EADF"/>
<path d="M73.8653 55.0567H73.8007C69.0045 55.0179 63.6913 50.3035 60.4981 46.159L20.4095 46.2497C19.259 47.5319 13.545 53.4378 5.64616 52.8938C2.5306 52.6736 0.617313 50.8734 0.113135 47.6873C-0.455681 44.1257 0.966359 39.3207 2.29791 37.7924C1.50932 36.1735 -0.882293 30.6561 0.74659 26.7318C1.47054 24.9963 2.85379 23.8048 4.88343 23.1961C12.4461 20.9166 17.3845 26.0325 18.4316 27.2628C22.0384 27.2887 56.5035 27.496 62.7605 27.5348C64.3247 26.5635 75.7915 19.738 80.4325 25.2165C84.1686 29.633 80.3033 35.3446 77.3945 38.1291C78.8812 39.9942 83.5998 46.716 79.282 52.2721C77.847 54.1242 76.0113 55.0567 73.8524 55.0567H73.8653ZM60.8343 44.8639C61.0411 44.8639 61.2221 44.9546 61.3514 45.1229C64.3376 49.0861 69.3923 53.7227 73.8265 53.7616H73.8782C75.6235 53.7616 77.1101 52.9974 78.2866 51.4821C82.6561 45.8612 76.1147 38.5954 76.0501 38.5177C75.9337 38.3882 75.8691 38.2198 75.882 38.0385C75.882 37.8701 75.9725 37.7017 76.1018 37.5852C76.1794 37.5204 83.574 30.9022 79.4759 26.0584C75.3261 21.1497 63.4456 28.6616 63.3293 28.7393C63.1095 28.8818 62.851 28.8429 62.5407 28.8429C55.3012 28.8429 18.535 28.5709 18.1601 28.5709C17.9533 28.5709 17.7723 28.4673 17.643 28.3119C17.4491 28.0529 12.9374 22.147 5.29712 24.4524C3.62945 24.9575 2.54353 25.8641 1.97472 27.2369C0.319978 31.226 3.66824 37.5852 3.70702 37.6499C3.79751 37.8053 3.81044 37.9996 3.7458 38.1809C3.68116 38.3493 3.55189 38.4918 3.38383 38.5565C2.71159 38.9969 0.565603 44.2681 1.56103 48.1665C2.11692 50.3294 3.48725 51.4562 5.77544 51.6116C13.7906 52.1685 19.608 45.2784 19.6597 45.2006C19.7761 45.0582 19.97 44.9675 20.151 44.9675L60.8472 44.8639H60.8343Z" fill="#977764"/>
<path d="M20.2064 49.7334C20.2064 49.7334 17.1684 59.6413 23.2315 60.7422C28.2474 61.6488 30.5744 58.8253 33.2246 50.912" fill="white"/>
<path d="M24.8859 61.5453C24.33 61.5453 23.7482 61.4935 23.1148 61.3769C21.641 61.105 20.5293 60.3667 19.7924 59.1493C17.724 55.7301 19.508 49.7854 19.5855 49.5393C19.689 49.2026 20.0509 49.0083 20.3871 49.1119C20.7232 49.2155 20.9171 49.5781 20.8137 49.9149C20.8007 49.9667 19.1202 55.5617 20.8912 58.4758C21.4342 59.3695 22.2357 59.9005 23.3346 60.0948C27.7558 60.8977 29.9147 58.696 32.6037 50.7049C32.72 50.3682 33.082 50.1869 33.4181 50.3034C33.7542 50.42 33.9352 50.7826 33.8189 51.1194C31.5824 57.7635 29.3976 61.5453 24.86 61.5453H24.8859Z" fill="#977764"/>
<path d="M64.2603 49.7334C64.2603 49.7334 67.2983 59.6413 61.2352 60.7422C56.2193 61.6488 53.8924 58.8253 51.2422 50.912" fill="white"/>
<path d="M59.5801 61.5453C55.0425 61.5453 52.8577 57.7635 50.6212 51.1194C50.5049 50.7826 50.6859 50.42 51.022 50.3034C51.3581 50.1869 51.733 50.3682 51.8364 50.7049C54.5254 58.7089 56.6843 60.8977 61.1055 60.0948C62.2044 59.9005 63.0059 59.3695 63.5489 58.4758C65.32 55.5488 63.6394 49.9667 63.6264 49.9149C63.523 49.5781 63.7169 49.2155 64.053 49.1119C64.4021 49.0083 64.7511 49.2026 64.8546 49.5393C64.9321 49.7854 66.7291 55.743 64.6477 59.1493C63.9108 60.3538 62.7991 61.105 61.3253 61.3769C60.7048 61.4935 60.1101 61.5453 59.5542 61.5453H59.5801Z" fill="#977764"/>
<path d="M28.9201 42.1179C33.1604 41.4833 38.1892 42.1438 36.4311 47.2208C34.6729 52.3107 30.4585 54.3441 24.3567 52.505C17.1172 50.3162 17.6343 41.7164 21.6031 41.1984C25.5719 40.6803 28.933 42.105 28.933 42.105L28.9201 42.1179Z" fill="white"/>
<path d="M28.414 53.8133C27.0953 53.8133 25.6733 53.5931 24.1478 53.1269C19.6102 51.754 17.8391 48.0111 18.0848 44.9027C18.2787 42.5067 19.6232 40.7971 21.4977 40.551C25.1174 40.0718 28.22 41.1468 28.9828 41.4447C30.8314 41.1856 34.8907 40.9136 36.6359 43.0118C37.5279 44.0997 37.6572 45.5762 37.0238 47.4282C35.5759 51.5986 32.5379 53.8004 28.414 53.8004V53.8133ZM23.3463 41.7425C22.8034 41.7425 22.2475 41.7684 21.6657 41.8462C20.4247 42.0016 19.5197 43.2579 19.3775 45.0193C19.1707 47.6096 20.6703 50.7309 24.5227 51.8965C30.2109 53.6061 34.1021 51.9224 35.8086 47.0138C36.2869 45.628 36.2352 44.566 35.6534 43.8536C34.6968 42.7009 32.2147 42.2865 29.0086 42.7657C28.8923 42.7916 28.7759 42.7657 28.6596 42.7269C28.6337 42.7269 26.3197 41.7555 23.3463 41.7555V41.7425Z" fill="#977764"/>
<path d="M56.2227 42.1179C51.9824 41.4833 46.9535 42.1438 48.7117 47.2208C50.4699 52.2978 54.6843 54.3441 60.7861 52.505C68.0256 50.3162 67.5085 41.7164 63.5397 41.1984C59.5709 40.6803 56.2097 42.105 56.2097 42.105L56.2227 42.1179Z" fill="white"/>
<path d="M56.713 53.8133C52.5891 53.8133 49.5511 51.6115 48.1032 47.4412C47.4568 45.6021 47.599 44.1126 48.491 43.0247C50.2363 40.9136 54.2955 41.1985 56.1442 41.4576C56.9069 41.1597 59.9966 40.0977 63.6293 40.5639C65.5038 40.81 66.8483 42.5196 67.0422 44.9156C67.3007 48.024 65.5167 51.767 60.9791 53.1398C59.4537 53.5931 58.0316 53.8262 56.713 53.8262V53.8133ZM53.6621 42.5585C51.6712 42.5585 50.1716 42.9988 49.4735 43.8406C48.8918 44.553 48.8272 45.615 49.3184 47.0008C51.0249 51.9094 54.9161 53.5931 60.6042 51.8835C64.4567 50.7179 65.9563 47.5966 65.7494 45.0063C65.6072 43.2449 64.7023 42.0015 63.4612 41.8332C59.7122 41.341 56.5062 42.688 56.4674 42.7009C56.364 42.7527 56.2347 42.7657 56.1183 42.7398C55.2393 42.6103 54.4119 42.5455 53.6621 42.5455V42.5585Z" fill="#977764"/>
<path d="M38.3797 20.5931C39.2151 20.5931 39.8923 19.9147 39.8923 19.0778C39.8923 18.2409 39.2151 17.5625 38.3797 17.5625C37.5444 17.5625 36.8672 18.2409 36.8672 19.0778C36.8672 19.9147 37.5444 20.5931 38.3797 20.5931Z" fill="#977764"/>
<path d="M48.0125 20.5931C48.8479 20.5931 49.5251 19.9147 49.5251 19.0778C49.5251 18.2409 48.8479 17.5625 48.0125 17.5625C47.1772 17.5625 46.5 18.2409 46.5 19.0778C46.5 19.9147 47.1772 20.5931 48.0125 20.5931Z" fill="#977764"/>
<path d="M43.9351 25.5796H42.3709C41.6599 25.5796 41.0781 24.9967 41.0781 24.2844C41.0781 23.5721 41.6599 22.9893 42.3709 22.9893H43.9351C44.6462 22.9893 45.2279 23.5721 45.2279 24.2844C45.2279 24.9967 44.6462 25.5796 43.9351 25.5796Z" fill="#977764"/>
<path d="M47.5598 28.6095C45.1294 28.6095 43.6557 27.4957 42.9834 26.8092C38.2648 30.2673 33.4558 26.8092 33.4041 26.7833C33.1196 26.5761 33.055 26.1746 33.2618 25.8767C33.4687 25.5918 33.8694 25.527 34.1668 25.7343C34.3478 25.8638 38.5622 28.8556 42.6473 25.4234C42.7895 25.3069 42.9705 25.255 43.1515 25.281C43.3325 25.3069 43.5005 25.4105 43.591 25.5659C43.6427 25.6436 44.9484 27.4698 47.9089 27.3014C50.9469 27.146 52.0328 26.0062 52.0328 25.9933C52.2784 25.7343 52.6792 25.7084 52.9377 25.9415C53.1963 26.1746 53.235 26.5761 53.0023 26.8481C52.8601 27.0035 51.5545 28.4023 47.9735 28.5965C47.8313 28.5965 47.6891 28.5965 47.5469 28.5965L47.5598 28.6095Z" fill="#977764"/>
</g>
<defs>
<clipPath id="clip0_2046_39268">
<rect width="82" height="71" fill="white"/>
</clipPath>
</defs>
</svg>
