<svg width="51" height="72" viewBox="0 0 51 72" fill="none" xmlns="http://www.w3.org/2000/svg">
<g clip-path="url(#clip0_2046_38073)">
<path d="M40.0084 35.1992H10.9922V64.447H40.0084V35.1992Z" fill="white"/>
<path d="M8 43.5L11.5 38.5L41 39.5L43.5 45.5L42.5 54L10 51.5L8 43.5Z" fill="white"/>
<path d="M48.041 24.0851C48.064 34.9443 46.5792 44.4692 26.7248 44.4692C5.3741 44.4692 2.31249 35.3271 3.01459 24.0851C3.82028 11.3348 13.0972 3.67773 25.5278 3.67773C41.9523 3.67773 48.018 15.5695 48.041 24.0851Z" fill="white"/>
<path d="M26.7374 45.0493C16.7699 45.0493 10.0827 43.077 6.30745 39.0164C2.32505 34.747 2.16391 28.7722 2.45166 24.0503C3.24584 11.3232 12.3041 3.09766 25.5404 3.09766C33.0448 3.09766 39.214 5.59202 43.3806 10.3023C46.7069 14.0612 48.6175 19.0848 48.629 24.0851C48.6406 29.8395 48.3183 35.8144 44.2553 39.9098C40.8254 43.3671 35.0935 45.0493 26.7374 45.0493ZM25.5404 4.24622C12.9716 4.25782 4.35078 12.0542 3.60264 24.1199C3.18829 30.7909 4.27021 35.1415 7.14766 38.2275C10.7042 42.0445 17.1152 43.9007 26.7374 43.9007C34.7712 43.9007 40.2384 42.3345 43.4381 39.0977C47.1903 35.3155 47.4896 29.6075 47.4781 24.0967C47.4666 17.2401 42.8511 4.26943 25.5404 4.26943V4.24622Z" fill="#977764"/>
<path d="M10.9912 20.849C11.0717 20.6866 11.1638 20.5125 11.2444 20.3269L8.99996 12.0781C8.99996 12.0781 5.66211 12.519 3.1875 13.9344C4.02772 15.1526 6.79007 18.8071 10.9796 20.849H10.9912Z" fill="white"/>
<path d="M0.575073 17.3909C0.402426 21.4747 4.98333 20.4189 4.98333 20.4189C4.98333 20.4189 8.47081 25.6513 10.9915 20.8482C6.79037 18.8063 4.02802 15.1518 3.19931 13.9336C1.7836 14.7341 0.644132 15.8595 0.586583 17.3909H0.575073Z" fill="white"/>
<path d="M8.47116 23.4594C6.75619 23.4594 5.28294 21.7656 4.74197 21.0579C3.98233 21.1623 2.26736 21.2783 1.10487 20.3038C0.322205 19.6425 -0.0461089 18.6563 -6.96443e-05 17.3686C0.195597 12.7163 8.56323 11.5561 8.92004 11.4981C9.2308 11.4517 9.51855 11.6837 9.56459 11.997C9.61063 12.3102 9.38043 12.6003 9.06967 12.6467C6.90582 12.9367 1.27752 14.3521 1.15091 17.4034C1.11638 18.3199 1.33507 18.9812 1.82999 19.3872C2.87738 20.269 4.83405 19.8397 4.85707 19.8281C5.08727 19.7701 5.32898 19.8745 5.46709 20.0717C5.90447 20.7214 7.32017 22.3805 8.59776 22.2645C9.39194 22.1949 10.1055 21.4523 10.7271 20.0601C10.8537 19.7701 11.199 19.6425 11.4867 19.7701C11.7745 19.8977 11.9011 20.2458 11.7745 20.5358C10.9688 22.3457 9.9329 23.3086 8.68984 23.4246C8.62078 23.4246 8.54021 23.4246 8.47116 23.4246V23.4594Z" fill="#977764"/>
<path d="M40.0071 20.849C39.9266 20.6866 39.8345 20.5125 39.7539 20.3269L41.9983 12.0781C41.9983 12.0781 45.3362 12.519 47.8108 13.9344C46.9706 15.1526 44.2082 18.8071 40.0186 20.849H40.0071Z" fill="white"/>
<path d="M50.4242 17.3909C50.5968 21.4747 46.0159 20.4189 46.0159 20.4189C46.0159 20.4189 42.5285 25.6513 40.0078 20.8482C44.2089 18.8063 46.9713 15.1518 47.8 13.9336C49.2157 14.7341 50.3551 15.8595 50.4127 17.3909H50.4242Z" fill="white"/>
<path d="M42.5398 23.4598C42.4708 23.4598 42.3902 23.4598 42.3212 23.4598C41.0781 23.3554 40.0422 22.3808 39.2365 20.571C39.1099 20.2809 39.2365 19.9329 39.5243 19.8053C39.812 19.666 40.1573 19.8053 40.2839 20.0953C40.9054 21.4875 41.6191 22.23 42.4132 22.2996C43.7138 22.4156 45.1065 20.7566 45.5324 20.1069C45.6705 19.9097 45.9122 19.8053 46.1424 19.8633C46.1654 19.8633 48.1221 20.3041 49.1695 19.4224C49.6529 19.0163 49.8831 18.3434 49.8486 17.4385C49.722 14.3873 44.0822 12.9603 41.9298 12.6818C41.6191 12.6354 41.3889 12.3454 41.4349 12.0321C41.4809 11.7189 41.7572 11.4869 42.0795 11.5333C42.4363 11.5797 50.8039 12.7514 50.9996 17.4037C51.0571 18.6915 50.6888 19.6776 49.9061 20.3389C48.7436 21.3135 47.0287 21.1975 46.269 21.093C45.7166 21.8123 44.2433 23.4946 42.5398 23.4946V23.4598Z" fill="#977764"/>
<path d="M25.2622 36.5686C28.6948 36.5686 31.4775 34.5377 31.4775 32.0323C31.4775 29.527 28.6948 27.4961 25.2622 27.4961C21.8296 27.4961 19.0469 29.527 19.0469 32.0323C19.0469 34.5377 21.8296 36.5686 25.2622 36.5686Z" fill="#B8E2F2"/>
<path d="M21.0185 27.496C21.7623 27.496 22.3652 26.8883 22.3652 26.1386C22.3652 25.389 21.7623 24.7812 21.0185 24.7812C20.2748 24.7812 19.6719 25.389 19.6719 26.1386C19.6719 26.8883 20.2748 27.496 21.0185 27.496Z" fill="#977764"/>
<path d="M29.5927 27.496C30.3365 27.496 30.9394 26.8883 30.9394 26.1386C30.9394 25.389 30.3365 24.7812 29.5927 24.7812C28.849 24.7812 28.2461 25.389 28.2461 26.1386C28.2461 26.8883 28.849 27.496 29.5927 27.496Z" fill="#977764"/>
<path d="M25.9577 31.9629H24.565C23.932 31.9629 23.4141 31.4408 23.4141 30.8027C23.4141 30.1647 23.932 29.6426 24.565 29.6426H25.9577C26.5908 29.6426 27.1087 30.1647 27.1087 30.8027C27.1087 31.4408 26.5908 31.9629 25.9577 31.9629Z" fill="#977764"/>
<path d="M20.7291 5.77775C20.7291 5.77775 19.3825 2.13482 24.8381 1.16028C24.8381 1.16028 23.3304 4.0723 24.2281 5.15126C24.2281 5.15126 24.677 1.3343 30.4089 0.591797C30.4089 0.591797 27.9228 4.24633 28.9932 6.89151" fill="white"/>
<path d="M28.9918 7.46027C28.7616 7.46027 28.5545 7.32105 28.4624 7.10062C27.6682 5.12833 28.589 2.74999 29.2911 1.38099C25.2396 2.35553 24.8253 5.09353 24.8023 5.22115C24.7677 5.45318 24.6066 5.63881 24.3879 5.70842C24.1692 5.77803 23.9275 5.70842 23.7894 5.52279C23.0528 4.64106 23.4326 3.07484 23.847 1.99588C22.6845 2.34393 21.8903 2.88921 21.4759 3.59691C20.9235 4.55985 21.2572 5.54599 21.2688 5.5808C21.3723 5.88244 21.2227 6.21889 20.9235 6.32331C20.6242 6.43932 20.3019 6.2769 20.1868 5.98686C20.1638 5.92885 19.6459 4.47864 20.4631 3.04003C21.1652 1.79865 22.6039 0.974934 24.7332 0.592079C24.9519 0.557274 25.1706 0.638485 25.2972 0.824112C25.4238 0.998137 25.4468 1.24177 25.3432 1.439C25.1706 1.77545 24.9864 2.19311 24.8368 2.62237C25.7691 1.52021 27.415 0.39485 30.327 0.0119948C30.5457 -0.0228103 30.7759 0.0932065 30.891 0.290435C31.0061 0.487663 31.0061 0.731299 30.8794 0.916925C30.8564 0.951731 28.5775 4.35102 29.5213 6.67136C29.6364 6.973 29.4983 7.30945 29.199 7.42547C29.13 7.46027 29.0609 7.47187 28.9803 7.47187L28.9918 7.46027Z" fill="#977764"/>
<path d="M27.0015 34.6786C26.1613 34.6786 25.5397 34.0985 25.1369 33.4604C24.6189 34.0985 24.0435 34.435 23.4104 34.4466C22.0062 34.5046 21.143 33.0428 21.0394 32.8688C20.8783 32.5903 20.9588 32.2423 21.2351 32.0682C21.4998 31.9058 21.8566 31.987 22.0292 32.2539C22.1904 32.5207 22.8234 33.3096 23.3874 33.2748C23.9284 33.2516 24.4118 32.5671 24.7225 31.987C24.8376 31.7782 25.0563 31.6506 25.2865 31.6854C25.5167 31.7086 25.7124 31.871 25.7814 32.0914C25.7814 32.103 26.2879 33.6113 27.1051 33.4952C28.0834 33.3792 28.4402 32.5323 28.4517 32.4975C28.5668 32.2075 28.9121 32.0566 29.1999 32.1727C29.4876 32.2887 29.6372 32.6251 29.5221 32.9152C29.4991 32.9732 28.9121 34.4466 27.2317 34.6438C27.1511 34.6438 27.082 34.6554 27.0015 34.6554V34.6786Z" fill="#977764"/>
<path d="M21.0185 27.496C21.7623 27.496 22.3652 26.8883 22.3652 26.1386C22.3652 25.389 21.7623 24.7812 21.0185 24.7812C20.2748 24.7812 19.6719 25.389 19.6719 26.1386C19.6719 26.8883 20.2748 27.496 21.0185 27.496Z" fill="#977764"/>
<path d="M29.5927 27.496C30.3365 27.496 30.9394 26.8883 30.9394 26.1386C30.9394 25.389 30.3365 24.7812 29.5927 24.7812C28.849 24.7812 28.2461 25.389 28.2461 26.1386C28.2461 26.8883 28.849 27.496 29.5927 27.496Z" fill="#977764"/>
<path d="M37.8772 71.4199H13.0391L13.0736 42.3809L37.8772 45.7686V71.4199Z" fill="#95B4DF"/>
<path d="M37.8785 71.9999H13.0403C12.8907 71.9999 12.7411 71.9419 12.6375 71.8259C12.5339 71.7214 12.4648 71.5706 12.4648 71.4198L12.4994 42.3808C12.4994 42.2184 12.5684 42.056 12.695 41.9399C12.8216 41.8239 12.9828 41.7775 13.1554 41.8007L37.9591 45.1884C38.2468 45.2232 38.454 45.4785 38.454 45.7685V71.4198C38.454 71.7446 38.2008 71.9999 37.8785 71.9999ZM13.6158 70.8397H37.303V46.279L13.6504 43.0537L13.6158 70.8513V70.8397Z" fill="#977764"/>
<path d="M36.4498 42.7409C36.4498 41.4995 37.0138 40.4206 37.877 39.7129H16.8946C14.7653 39.7129 13.0273 41.0703 13.0273 42.7409C13.0273 44.4116 14.7538 45.769 16.8946 45.769H37.8655C37.0023 45.0613 36.4383 43.9707 36.4383 42.7409H36.4498Z" fill="white"/>
<path d="M37.8785 46.3491H16.8961C14.4445 46.3491 12.4648 44.7248 12.4648 42.7409C12.4648 40.757 14.456 39.1328 16.8961 39.1328H37.867C38.1087 39.1328 38.3274 39.2836 38.408 39.5157C38.4885 39.7477 38.408 40.0029 38.2238 40.1654C37.4527 40.7919 37.0153 41.7316 37.0153 42.7409C37.0153 43.7503 37.4527 44.69 38.2353 45.3165C38.4195 45.4673 38.5 45.7342 38.4195 45.9662C38.3389 46.1982 38.1202 46.3491 37.8785 46.3491ZM16.9076 40.293C15.1006 40.293 13.6273 41.3951 13.6273 42.7409C13.6273 44.0867 15.1006 45.1889 16.9076 45.1889H36.6009C36.1405 44.4696 35.8873 43.6227 35.8873 42.7409C35.8873 41.8592 36.1405 41.0123 36.6009 40.293H16.8961H16.9076Z" fill="#977764"/>
<path d="M41.7806 41.1621C41.7806 41.1621 47.6391 46.4409 47.0752 57.8221C46.5112 69.2034 35.5653 68.2404 33.8619 67.1267C32.1584 66.0129 29.5687 63.739 30.9269 59.6436C30.9269 59.6436 30.0867 56.6736 31.4794 55.2001C33.6432 52.9262 37.6371 53.3787 39.7549 54.4576" fill="white"/>
<path d="M37.1893 68.333C35.5319 68.333 34.1507 67.9966 33.5522 67.6021C29.6619 65.0498 29.6273 61.8825 30.3294 59.6202C30.1568 58.9125 29.6619 56.2789 31.0661 54.7939C33.4601 52.2763 37.7418 52.7752 40.0207 53.9354C40.3085 54.0746 40.412 54.4342 40.2739 54.7127C40.1358 55.0027 39.7905 55.1071 39.5028 54.9679C37.6036 53.9934 33.863 53.5177 31.8948 55.5944C30.9395 56.6037 31.2732 58.7384 31.4804 59.4693C31.515 59.5854 31.5034 59.7014 31.4804 59.8058C30.5596 62.5902 31.4459 64.8177 34.1852 66.616C34.8643 67.0684 38.605 67.7761 41.8853 66.0823C44.7512 64.6089 46.3051 61.8129 46.5007 57.7639C47.0417 46.8235 41.4594 41.626 41.4019 41.568C41.1717 41.3591 41.1487 40.9879 41.3558 40.7442C41.563 40.5122 41.9313 40.489 42.173 40.6978C42.4263 40.9183 48.2272 46.2898 47.6632 57.8103C47.387 63.4023 44.6592 65.9547 42.4147 67.1033C40.6998 67.985 38.8122 68.2982 37.1893 68.2982V68.333Z" fill="#977764"/>
<path d="M9.49683 41.1621C9.49683 41.1621 3.63834 46.4409 4.20232 57.8221C4.7663 69.2034 15.7121 68.2404 17.4156 67.1267C19.119 66.0129 21.7087 63.739 20.3506 59.6436C20.3506 59.6436 21.1908 56.6736 19.7981 55.2001C17.6343 52.9262 13.6404 53.3787 11.5226 54.4576" fill="white"/>
<path d="M14.0884 68.3335C12.477 68.3335 10.5779 68.0202 8.87447 67.1385C6.63005 65.99 3.90223 63.4376 3.62599 57.8456C3.0505 46.3251 8.86296 40.9535 9.11617 40.7331C9.35788 40.5243 9.71468 40.5359 9.93337 40.7795C10.1405 41.0231 10.129 41.3828 9.88733 41.6032C9.82978 41.6496 4.24752 46.8588 4.78848 57.7992C4.98415 61.8482 6.53797 64.6442 9.40392 66.1176C12.6842 67.8114 16.4249 67.0921 17.104 66.6512C19.8433 64.853 20.7296 62.6255 19.8088 59.8411C19.7743 59.7367 19.7743 59.609 19.8088 59.5046C20.016 58.7621 20.3498 56.6274 19.3944 55.6297C17.4263 53.553 13.6971 54.0286 11.7865 55.0032C11.4987 55.1424 11.1534 55.038 11.0153 54.7479C10.8772 54.4579 10.9808 54.1098 11.2685 53.9706C13.5475 52.8105 17.8291 52.3 20.2231 54.8291C21.6273 56.3142 21.1324 58.9361 20.9598 59.6554C21.6619 61.9178 21.6273 65.085 17.737 67.6374C17.1385 68.0318 15.7688 68.3683 14.0999 68.3683L14.0884 68.3335Z" fill="#977764"/>
</g>
<defs>
<clipPath id="clip0_2046_38073">
<rect width="51" height="72" fill="white"/>
</clipPath>
</defs>
</svg>
